<svg width="40" height="40" viewBox="0 0 40 40" fill="none" xmlns="http://www.w3.org/2000/svg">
<g id="chat-round-unread_svgrepo.com">
<path id="Vector" d="M31.6666 13.3334C28.9052 13.3334 26.6666 11.0948 26.6666 8.33337C26.6666 5.57195 28.9052 3.33337 31.6666 3.33337C34.428 3.33337 36.6666 5.57195 36.6666 8.33337C36.6666 11.0948 34.428 13.3334 31.6666 13.3334Z" stroke="#1C274C" stroke-width="3.75"/>
<path id="Vector_2" d="M23.3334 3.66677C22.2564 3.44814 21.1415 3.33337 20 3.33337C16.9644 3.33337 14.1182 4.14499 11.6667 5.56307M36.3334 16.6667C36.5519 17.7437 36.6667 18.8585 36.6667 20C36.6667 29.2047 29.2047 36.6667 20 36.6667C17.3339 36.6667 14.814 36.0407 12.5793 34.9275C11.9854 34.6319 11.3066 34.5334 10.6657 34.7049L6.95562 35.6975C5.34506 36.1284 3.87162 34.655 4.30256 33.0445L5.29524 29.3344C5.46672 28.6935 5.36827 28.0147 5.07247 27.4209C3.95941 25.186 3.33337 22.6662 3.33337 20C3.33337 16.9644 4.14499 14.1182 5.56307 11.6667" stroke="#1C274C" stroke-width="1.5" stroke-linecap="round"/>
</g>
</svg>
