<svg width="45" height="30" viewBox="0 0 45 30" fill="none" xmlns="http://www.w3.org/2000/svg">
<path id="Vector" fill-rule="evenodd" clip-rule="evenodd" d="M17.7268 22.7135H27.3918C28.0347 25.0796 29.5148 27.0921 31.5247 28.326C33.5856 29.5913 36.0349 29.9341 38.3336 29.2792C38.3353 29.2787 38.337 29.2782 38.3387 29.2777C40.6374 28.6228 42.5973 27.0237 43.7872 24.8321C44.9771 22.6407 45.2995 20.0362 44.6836 17.5919C43.8542 14.3004 42.8871 10.4628 42.0577 7.17128C41.4418 4.72698 39.9379 2.64293 37.8769 1.37768C35.816 0.112429 33.3667 -0.230445 31.068 0.424502C31.0663 0.424963 31.0646 0.425475 31.0629 0.425988C29.7404 0.802739 28.53 1.49208 27.514 2.42696C27.5146 2.42634 17.6039 2.42634 17.6039 2.42634C16.5891 1.49238 15.3785 0.802842 14.0556 0.425936C14.054 0.425475 14.0522 0.424963 14.0505 0.424502C11.7518 -0.230445 9.30256 0.112429 7.24162 1.37768C5.18063 2.64293 3.67678 4.72698 3.06084 7.17128C2.23139 10.4628 1.26437 14.3004 0.43492 17.5919C-0.181014 20.0362 0.141437 22.6407 1.33132 24.8321C2.52126 27.0237 4.48112 28.6228 6.77982 29.2777C6.78156 29.2782 6.78325 29.2787 6.78498 29.2792C9.08368 29.9341 11.5329 29.5913 13.5939 28.326C15.6037 27.0921 17.0838 25.0796 17.7268 22.7135ZM30.0073 20.7255C29.6645 19.4749 28.5677 19.5102 28.5452 19.5103C22.5116 19.5303 16.5733 19.5103 16.5733 19.5103C15.7928 19.5302 15.2719 20.0801 15.1113 20.7255C15.009 21.1366 14.9493 21.3677 14.8707 21.6804C14.7441 22.1844 14.7437 22.1843 14.8649 21.7034C14.4557 23.3271 13.4567 24.7114 12.0877 25.5519C10.7186 26.3924 9.09164 26.6202 7.56465 26.1851L7.55949 26.1836C6.0325 25.7486 4.7306 24.6863 3.94019 23.2305C3.14977 21.7748 2.93558 20.0447 3.34474 18.421C4.17414 15.1295 5.14116 11.2919 5.97061 8.00033C6.37977 6.37663 7.37874 4.99227 8.74783 4.15174C10.1169 3.31126 11.7439 3.0835 13.2708 3.51857L13.276 3.52006C14.2954 3.8105 15.2145 4.38047 15.948 5.16047C16.2305 5.46086 16.6136 5.62958 17.0131 5.62958H28.1054C28.5049 5.62958 28.888 5.46086 29.1705 5.16047C29.904 4.38047 30.8231 3.8105 31.8425 3.52006L31.8477 3.51857C33.3747 3.0835 35.0017 3.31126 36.3707 4.15174C37.7398 4.99227 38.7388 6.37663 39.1479 8.00033C39.9774 11.2919 40.9444 15.1295 41.7738 18.421C42.183 20.0447 41.9688 21.7748 41.1784 23.2305C40.3879 24.6863 39.086 25.7486 37.559 26.1836L37.5539 26.1851C36.0269 26.6202 34.3999 26.3924 33.0308 25.5519C31.6753 24.7197 30.6825 23.3543 30.2659 21.7513L30.0073 20.7255ZM17.7178 22.7135H17.7172L17.7131 22.7253L17.6816 22.8019C17.6945 22.773 17.7066 22.7435 17.7178 22.7135ZM10.5096 10.7653H9.01413C8.18285 10.7653 7.50792 11.483 7.50792 12.3669C7.50792 13.2509 8.18285 13.9686 9.01413 13.9686H10.5096V15.5587C10.5096 16.4426 11.1844 17.1603 12.0158 17.1603C12.8471 17.1603 13.522 16.4426 13.522 15.5587V13.9686H15.0174C15.8487 13.9686 16.5236 13.2509 16.5236 12.3669C16.5236 11.483 15.8487 10.7653 15.0174 10.7653H13.522V9.17518C13.522 8.29124 12.8471 7.57356 12.0158 7.57356C11.1844 7.57356 10.5096 8.29124 10.5096 9.17518V10.7653Z" fill="black"/>
</svg>
