<svg width="45" height="45" viewBox="0 0 45 45" fill="none" xmlns="http://www.w3.org/2000/svg">
<g id="settings_svgrepo.com">
<path id="Vector" d="M22.5 28.125C25.6066 28.125 28.125 25.6066 28.125 22.5C28.125 19.3934 25.6066 16.875 22.5 16.875C19.3934 16.875 16.875 19.3934 16.875 22.5C16.875 25.6066 19.3934 28.125 22.5 28.125Z" stroke="#1C274C" stroke-width="3.75"/>
<path id="Vector_2" d="M6.86484 19.9485C7.75088 20.5052 8.32097 21.4536 8.32097 22.4998C8.32095 23.5462 7.75086 24.4946 6.86484 25.0513C6.26192 25.4301 5.87346 25.7329 5.59708 26.0931C4.99162 26.8822 4.72442 27.8794 4.85424 28.8654C4.95159 29.6049 5.38841 30.3615 6.26205 31.8748C7.13571 33.3879 7.57252 34.1445 8.16429 34.5986C8.95333 35.2041 9.95057 35.4713 10.9366 35.3415C11.3867 35.2823 11.8431 35.0972 12.4725 34.7646C13.3978 34.2756 14.5043 34.2561 15.4106 34.7794C16.3168 35.3027 16.8531 36.2706 16.8922 37.3163C16.9188 38.0278 16.9868 38.5157 17.1605 38.9351C17.5411 39.8539 18.2711 40.584 19.1899 40.9646C19.8792 41.25 20.7527 41.25 22.5001 41.25C24.2474 41.25 25.1209 41.25 25.8102 40.9646C26.7289 40.584 27.4591 39.8539 27.8397 38.9351C28.0133 38.5157 28.0814 38.0278 28.108 37.3164C28.147 36.2706 28.6832 35.3027 29.5896 34.7794C30.4958 34.2562 31.6022 34.2758 32.5274 34.7648C33.157 35.0974 33.6134 35.2824 34.0634 35.3417C35.0494 35.4716 36.0467 35.2042 36.8357 34.5988C37.4275 34.1449 37.8644 33.3881 38.7381 31.875C39.127 31.2013 39.4294 30.6776 39.6537 30.2385M38.1351 25.0515C37.2492 24.4948 36.6792 23.5464 36.679 22.5002C36.679 21.4538 37.2492 20.5052 38.1351 19.9485C38.7381 19.5698 39.1264 19.2669 39.4028 18.9068C40.0082 18.1177 40.2754 17.1205 40.1457 16.1344C40.0484 15.3949 39.6115 14.6383 38.7377 13.1251C37.8642 11.6119 37.4273 10.8553 36.8356 10.4012C36.0466 9.79577 35.0492 9.52856 34.0632 9.65837C33.6132 9.71764 33.1568 9.90262 32.5274 10.2353C31.6021 10.7243 30.4956 10.7438 29.5894 10.2206C28.6832 9.69731 28.147 8.72944 28.108 7.68381C28.0814 6.97223 28.0133 6.48441 27.8397 6.06493C27.4591 5.14609 26.7289 4.41606 25.8102 4.03545C25.1209 3.75 24.2474 3.75 22.5001 3.75C20.7527 3.75 19.8792 3.75 19.1899 4.03545C18.2711 4.41606 17.5411 5.14609 17.1605 6.06493C16.9868 6.48437 16.9188 6.97215 16.8922 7.68364C16.853 8.72936 16.3168 9.69733 15.4105 10.2206C14.5042 10.7438 13.3978 10.7242 12.4726 10.2352C11.8432 9.90255 11.3867 9.71754 10.9366 9.65828C9.95059 9.52847 8.95335 9.79567 8.16431 10.4011C7.57254 10.8552 7.13572 11.6118 6.26207 13.125C5.87314 13.7987 5.57078 14.3224 5.34639 14.7614" stroke="#1C274C" stroke-width="3.75" stroke-linecap="round"/>
</g>
</svg>
